<svg width="128" height="128" viewBox="0 0 128 128" fill="none" xmlns="http://www.w3.org/2000/svg">
<path d="M10.7465 40.2594C7.98993 32.8224 6.36548 31.2078 1 30.4739V28.1743H27.4829V30.4739C20.6407 31.3056 19.5085 33.2138 21.9698 40.2594L38.9523 88.2083L54.9505 41.7272C57.8053 33.3606 57.0176 31.4524 49.634 30.4739V28.1743H69.6686V30.4739C64.057 31.2078 62.5801 32.8224 59.1837 41.9719L38.1647 98.8258H32.0608L10.7465 40.2594ZM67.8471 63.1086C67.8471 40.0637 83.9436 27 104.077 27C115.595 27 123.225 29.3975 127.065 32.1863L127.704 47.941H125.588C122.93 36.1984 115.989 30.3271 104.716 30.3271C89.014 30.3271 79.7104 42.9504 79.7104 62.0322C79.7104 81.1139 89.1616 96.6728 104.963 96.6728C115.546 96.6728 123.028 91.6334 125.883 78.6675H128L127.36 94.3736C123.619 97.1132 114.512 100 104.323 100C83.9931 100 67.8471 85.9091 67.8471 63.1086Z" fill="currentColor"/>
    <style>
        path { fill: #000; }
        @media (prefers-color-scheme: dark) {
            path { fill: #FFF; }
        }
    </style>
</svg>

